<svg fill="#ffffff80" xmlns="http://www.w3.org/2000/svg" height="40" viewBox="0 -960 960 960" width="40"><path d="M480-520q-51.525 0-86.096-34.571-34.57-34.57-34.57-86.429 0-51.858 34.57-86.095 34.571-34.238 86.096-34.238 51.525 0 86.096 34.238 34.57 34.237 34.57 86.095 0 51.859-34.57 86.429Q531.525-520 480-520ZM192-191.667v-69q0-27 15.292-49.201T248-344.667q59-27.666 117.085-41.5Q423.169-400 479.918-400q56.749 0 114.915 13.833Q653-372.333 711.651-344.401q25.876 12.403 41.113 34.568Q768-287.667 768-260.667v69H192ZM233.333-233h493.334v-27.667q0-14.667-8.717-26.949Q709.233-299.899 693-308q-51-24.334-105.187-37.5Q533.627-358.667 480-358.667q-53.626 0-107.813 13-54.187 13-104.52 37.667-16.667 8-25.5 20.207-8.834 12.207-8.834 27.126V-233ZM480-561.333q33.333 0 56.333-23t23-56.333q0-33.334-23-56.334T480-720q-33.333 0-56.333 23t-23 56.334q0 33.333 23 56.333t56.333 23Zm0-79.333ZM480-233Z"/></svg>